<?xml version="1.0" standalone="no"?>
<!DOCTYPE svg PUBLIC "-//W3C//DTD SVG 20010904//EN"
 "http://www.w3.org/TR/2001/REC-SVG-20010904/DTD/svg10.dtd">
<svg version="1.0" xmlns="http://www.w3.org/2000/svg"
 width="180.000000pt" height="180.000000pt" viewBox="0 0 180.000000 180.000000"
 preserveAspectRatio="xMidYMid meet">
<metadata>
Created by potrace 1.11, written by Peter Selinger 2001-2013
</metadata>
<g transform="translate(0.000000,180.000000) scale(0.100000,-0.100000)"
fill="#000000" stroke="none">
<path d="M1467 1793 c-12 -11 -8 -32 16 -81 l24 -49 -31 -20 c-17 -11 -56 -34
-87 -51 l-55 -30 -22 32 c-12 18 -22 37 -22 42 0 5 -13 25 -28 44 -20 23 -34
31 -45 27 -23 -9 -21 -29 9 -89 l26 -52 -22 -18 c-12 -10 -28 -18 -35 -18 -8
0 -20 -6 -27 -13 -15 -15 -389 -218 -435 -236 -36 -15 -37 -18 -54 -114 -11
-65 -13 -69 -48 -85 -20 -9 -38 -20 -41 -23 -3 -4 -33 -21 -67 -38 -68 -34
-80 -51 -35 -51 28 0 36 4 141 64 l64 37 46 -22 c85 -40 88 -40 129 -17 20 12
66 38 102 59 36 20 89 49 119 64 30 15 61 34 69 41 7 8 17 14 21 14 5 0 52 25
106 55 53 30 100 55 104 55 5 0 16 -18 26 -40 10 -22 26 -47 36 -56 21 -19 49
-12 49 11 0 15 -35 92 -60 132 -8 12 -12 24 -10 26 21 17 180 96 180 89 0 -16
62 -102 74 -102 34 0 33 23 -3 89 -172 321 -178 331 -199 331 -5 0 -12 -3 -15
-7z m95 -222 l27 -49 -62 -32 c-34 -18 -74 -41 -88 -51 l-27 -19 -25 39 c-41
62 -40 67 43 115 41 24 82 44 90 45 8 0 27 -21 42 -48z m-267 -73 c9 -18 29
-55 45 -83 16 -27 30 -53 30 -56 0 -3 -15 -13 -32 -22 -18 -9 -64 -35 -103
-57 -38 -22 -86 -48 -105 -56 -19 -9 -42 -22 -50 -29 -8 -7 -68 -40 -132 -74
l-118 -61 -55 23 c-59 24 -62 29 -49 108 5 30 15 41 60 68 29 18 58 30 64 26
5 -3 17 -20 26 -37 11 -22 19 -27 27 -19 8 8 6 20 -5 45 -12 25 -14 36 -5 45
17 17 24 14 47 -25 28 -45 46 -32 26 18 -9 19 -12 38 -9 42 16 15 42 4 55 -24
7 -16 19 -30 25 -30 17 0 16 15 -3 51 -11 23 -12 34 -4 44 16 19 36 9 50 -26
7 -16 16 -29 20 -29 16 0 18 14 5 41 -19 36 -19 45 2 53 17 7 30 -5 52 -43 5
-8 13 -11 20 -7 8 5 6 16 -5 37 -8 17 -13 37 -10 45 9 24 35 16 51 -16 9 -16
22 -30 30 -30 19 0 19 3 -4 42 -20 31 -20 32 1 50 29 25 35 23 53 -14z"/>
</g>
</svg>
